<?xml version="1.0" encoding="UTF-8" standalone="no"?>
<!-- Generator: Adobe Illustrator 16.0.0, SVG Export Plug-In . SVG Version: 6.00 Build 0)  -->

<svg
   xmlns:dc="http://purl.org/dc/elements/1.1/"
   xmlns:cc="http://creativecommons.org/ns#"
   xmlns:rdf="http://www.w3.org/1999/02/22-rdf-syntax-ns#"
   xmlns:svg="http://www.w3.org/2000/svg"
   xmlns="http://www.w3.org/2000/svg"
   xmlns:sodipodi="http://sodipodi.sourceforge.net/DTD/sodipodi-0.dtd"
   xmlns:inkscape="http://www.inkscape.org/namespaces/inkscape"
   version="1.1"
   id="Layer_1"
   x="0px"
   y="0px"
   width="266.893px"
   height="266.895px"
   viewBox="0 0 266.893 266.895"
   enable-background="new 0 0 266.893 266.895"
   xml:space="preserve"
   sodipodi:docname="facebook.svg"
   inkscape:version="0.92.3 (2405546, 2018-03-11)"><metadata
   id="metadata4608"><rdf:RDF><cc:Work
       rdf:about=""><dc:format>image/svg+xml</dc:format><dc:type
         rdf:resource="http://purl.org/dc/dcmitype/StillImage" /></cc:Work></rdf:RDF></metadata><defs
   id="defs4606" /><sodipodi:namedview
   pagecolor="#ffffff"
   bordercolor="#666666"
   borderopacity="1"
   objecttolerance="10"
   gridtolerance="10"
   guidetolerance="10"
   inkscape:pageopacity="0"
   inkscape:pageshadow="2"
   inkscape:window-width="1600"
   inkscape:window-height="847"
   id="namedview4604"
   showgrid="false"
   inkscape:zoom="0.8842429"
   inkscape:cx="-50.32653"
   inkscape:cy="133.44749"
   inkscape:window-x="-8"
   inkscape:window-y="499"
   inkscape:window-maximized="1"
   inkscape:current-layer="Layer_1" />
<path
   id="Blue_1_"
   fill="#3C5A99"
   d="M248.082,262.307c7.854,0,14.223-6.369,14.223-14.225V18.812  c0-7.857-6.368-14.224-14.223-14.224H18.812c-7.857,0-14.224,6.367-14.224,14.224v229.27c0,7.855,6.366,14.225,14.224,14.225  H248.082z"
   style="fill:#4d4d4d;fill-opacity:1" />
<path
   id="f"
   fill="#FFFFFF"
   d="M182.409,262.307v-99.803h33.499l5.016-38.895h-38.515V98.777c0-11.261,3.127-18.935,19.275-18.935  l20.596-0.009V45.045c-3.562-0.474-15.788-1.533-30.012-1.533c-29.695,0-50.025,18.126-50.025,51.413v28.684h-33.585v38.895h33.585  v99.803H182.409z"
   style="fill:#000000;fill-opacity:1" />
</svg>