<?xml version="1.0" encoding="UTF-8" standalone="no"?>
<!-- Created with Inkscape (http://www.inkscape.org/) -->

<svg
   xmlns:dc="http://purl.org/dc/elements/1.1/"
   xmlns:cc="http://creativecommons.org/ns#"
   xmlns:rdf="http://www.w3.org/1999/02/22-rdf-syntax-ns#"
   xmlns:svg="http://www.w3.org/2000/svg"
   xmlns="http://www.w3.org/2000/svg"
   xmlns:sodipodi="http://sodipodi.sourceforge.net/DTD/sodipodi-0.dtd"
   xmlns:inkscape="http://www.inkscape.org/namespaces/inkscape"
   id="svg2"
   version="1.1"
   inkscape:version="0.92.3 (2405546, 2018-03-11)"
   xml:space="preserve"
   width="114.8625"
   height="114.8625"
   viewBox="0 0 114.8625 114.8625"
   sodipodi:docname="Git-icon-black.svg"><metadata
     id="metadata8"><rdf:RDF><cc:Work
         rdf:about=""><dc:format>image/svg+xml</dc:format><dc:type
           rdf:resource="http://purl.org/dc/dcmitype/StillImage" /><dc:title /></cc:Work></rdf:RDF></metadata><defs
     id="defs6" /><sodipodi:namedview
     pagecolor="#ffffff"
     bordercolor="#666666"
     borderopacity="1"
     objecttolerance="10"
     gridtolerance="10"
     guidetolerance="10"
     inkscape:pageopacity="0"
     inkscape:pageshadow="2"
     inkscape:window-width="702"
     inkscape:window-height="480"
     id="namedview4"
     showgrid="false"
     inkscape:zoom="2.0546305"
     inkscape:cx="57.431253"
     inkscape:cy="57.431253"
     inkscape:window-x="564"
     inkscape:window-y="625"
     inkscape:window-maximized="0"
     inkscape:current-layer="g10" /><g
     id="g10"
     inkscape:groupmode="layer"
     inkscape:label="ink_ext_XXXXXX"
     transform="matrix(1.25,0,0,-1.25,0,114.8625)"><g
       id="g12"
       transform="scale(0.1,0.1)"><path
         d="M 901.547,500.352 500.355,901.527 c -23.093,23.11 -60.566,23.11 -83.691,0 L 333.363,818.211 439.039,712.535 c 24.559,8.293 52.723,2.727 72.293,-16.847 19.688,-19.696 25.207,-48.102 16.699,-72.75 L 629.887,521.094 c 24.648,8.496 53.066,3.004 72.754,-16.711 27.5,-27.492 27.5,-72.059 0,-99.574 -27.52,-27.516 -72.078,-27.516 -99.61,0 -20.683,20.703 -25.801,51.097 -15.312,76.582 l -95,94.992 0,-249.969 c 6.699,-3.32 13.027,-7.742 18.613,-13.312 27.5,-27.497 27.5,-72.059 0,-99.598 -27.5,-27.488 -72.09,-27.488 -99.57,0 -27.5,27.539 -27.5,72.101 0,99.598 6.797,6.789 14.668,11.925 23.066,15.363 l 0,252.281 c -8.398,3.438 -16.25,8.531 -23.066,15.367 -20.828,20.821 -25.84,51.395 -15.157,76.977 L 292.426,777.285 17.3281,502.211 c -23.10544,-23.129 -23.10544,-60.602 0,-83.711 L 418.539,17.3242 c 23.098,-23.10545 60.559,-23.10545 83.691,0 L 901.547,416.641 c 23.117,23.113 23.117,60.605 0,83.711"
         style="fill:#100f0d;fill-opacity:1;fill-rule:nonzero;stroke:none"
         id="path14"
         inkscape:connector-curvature="0" /></g><path
       style="fill:#4d4d4d;stroke-width:0.48670551"
       d="M 53.975643,113.54859 C 53.172579,113.04208 40.867782,100.94219 26.631651,86.659927 4.092092,64.047331 0.70596685,60.461275 0.42420057,58.905078 -0.29342176,54.94165 -0.37309338,55.042052 18.609518,35.987664 l 17.823242,-17.890636 6.337914,6.32286 6.337914,6.322859 -0.149375,3.05043 c -0.129069,2.635739 0.02876,3.322664 1.161066,5.052965 0.720742,1.101394 1.937803,2.373128 2.704578,2.826073 l 1.394139,0.823538 -1.5e-5,15.425386 -1.4e-5,15.425382 -1.741866,1.389836 c -2.599917,2.07448 -3.607933,4.036103 -3.610045,7.025225 -0.0058,8.272806 9.349715,12.28031 15.143311,6.486718 3.613263,-3.613262 3.560767,-9.144014 -0.120707,-12.716763 L 62.006284,73.703782 V 58.683339 43.662892 l 5.424494,5.424493 5.424494,5.424494 0.05094,3.369745 c 0.0602,3.981635 1.298331,6.23843 4.36956,7.964556 2.302623,1.29415 6.205441,1.427215 8.410821,0.286767 5.857725,-3.029144 6.567955,-11.254662 1.31757,-15.259328 -1.43913,-1.097677 -2.387242,-1.386298 -5.047778,-1.536632 L 78.680553,49.151888 72.65527,43.112349 66.629987,37.07281 66.573135,34.159876 C 66.46916,28.83239 62.944093,25.323477 57.590921,25.218817 l -2.871635,-0.05614 -6.33367,-6.319853 -6.333665,-6.319853 5.472326,-5.4878957 C 53.887754,0.6534904 55.848194,-0.43295923 59.223745,0.55138041 60.998035,1.0687777 64.850548,4.7233053 87.647206,27.514101 110.89455,50.755466 114.05731,54.09449 114.3485,55.703446 c 0.81621,4.509954 1.77041,3.360049 -25.488117,30.715416 -13.832847,13.881988 -26.004807,25.873198 -27.0488,26.647128 -2.31299,1.71466 -5.564943,1.91494 -7.83594,0.4826 z"
       id="path4575"
       inkscape:connector-curvature="0"
       transform="matrix(0.8,0,0,-0.8,0,91.89)" /></g></svg>