<?xml version="1.0" encoding="UTF-8" standalone="no"?>
<!-- Generator: Adobe Illustrator 19.0.0, SVG Export Plug-In . SVG Version: 6.00 Build 0)  -->

<svg
   xmlns:dc="http://purl.org/dc/elements/1.1/"
   xmlns:cc="http://creativecommons.org/ns#"
   xmlns:rdf="http://www.w3.org/1999/02/22-rdf-syntax-ns#"
   xmlns:svg="http://www.w3.org/2000/svg"
   xmlns="http://www.w3.org/2000/svg"
   xmlns:sodipodi="http://sodipodi.sourceforge.net/DTD/sodipodi-0.dtd"
   xmlns:inkscape="http://www.inkscape.org/namespaces/inkscape"
   version="1.1"
   id="Layer_1"
   x="0px"
   y="0px"
   viewBox="0 0 36.099999 36"
   xml:space="preserve"
   sodipodi:docname="linkedIn.svg"
   width="36.099998"
   height="36"
   inkscape:version="0.92.3 (2405546, 2018-03-11)"><metadata
     id="metadata13"><rdf:RDF><cc:Work
         rdf:about=""><dc:format>image/svg+xml</dc:format><dc:type
           rdf:resource="http://purl.org/dc/dcmitype/StillImage" /><dc:title /></cc:Work></rdf:RDF></metadata><defs
     id="defs11" /><sodipodi:namedview
     pagecolor="#ffffff"
     bordercolor="#666666"
     borderopacity="1"
     objecttolerance="10"
     gridtolerance="10"
     guidetolerance="10"
     inkscape:pageopacity="0"
     inkscape:pageshadow="2"
     inkscape:window-width="1600"
     inkscape:window-height="847"
     id="namedview9"
     showgrid="false"
     inkscape:zoom="18.833333"
     inkscape:cx="18.049999"
     inkscape:cy="18"
     inkscape:window-x="-8"
     inkscape:window-y="499"
     inkscape:window-maximized="1"
     inkscape:current-layer="Layer_1" /><g
     id="g6"><g
       id="g4"><path
         d="M 33.3,0 H 2.7 C 1.2,0 0,1.2 0,2.6 V 33.4 C 0,34.8 1.2,36 2.7,36 h 30.7 c 1.5,0 2.7,-1.2 2.7,-2.6 V 2.6 C 36,1.2 34.8,0 33.3,0 Z M 10.7,30.7 H 5.3 V 13.5 h 5.3 V 30.7 Z M 8,11.1 C 6.3,11.1 4.9,9.7 4.9,8 4.9,6.3 6.3,5 8,5 c 1.7,0 3.1,1.4 3.1,3.1 0,1.7 -1.4,3 -3.1,3 z m 22.7,19.6 h -5.3 v -8.4 c 0,-2 0,-4.6 -2.8,-4.6 -2.8,0 -3.2,2.2 -3.2,4.4 v 8.5 H 14 V 13.5 h 5.1 v 2.3 h 0.1 c 0.7,-1.4 2.5,-2.8 5.1,-2.8 5.4,0 6.4,3.6 6.4,8.2 z"
         id="path2"
         inkscape:connector-curvature="0" /></g></g><path
     style="fill:#4d4d4d;stroke-width:0.05309734"
     d="M 2.1898222,35.923588 C 1.2163968,35.724042 0.38976484,34.98285 0.12356363,34.070894 0.04755243,33.810493 0.03937977,32.250436 0.03937977,18.001265 c 0,-15.5352142 0.0016258,-15.78649 0.10428988,-16.1186808 C 0.40658216,1.0318766 1.1388473,0.34598924 2.0327366,0.11316065 2.3095983,0.04104732 4.1106593,0.03185841 17.968276,0.03185841 c 11.200888,0 15.703048,0.01660968 15.904774,0.05867701 1.018928,0.21248432 1.922189,1.12257738 2.141551,2.15775108 0.06497,0.3065987 0.07612,2.6026699 0.07665,15.7835715 3.72e-4,9.742106 -0.01841,15.540931 -0.05101,15.740057 -0.123749,0.755688 -0.668342,1.505303 -1.361209,1.87366 -0.672034,0.357281 0.60916,0.332135 -16.639645,0.326583 C 9.4389373,35.96939 2.3066364,35.947533 2.1898222,35.923588 Z M 10.605751,22.093805 V 13.465487 H 7.9508842 5.2960169 v 8.628318 8.628319 h 2.6548673 2.6548668 z m 20.108121,2.960177 c -0.02383,-5.963927 -0.02551,-6.007349 -0.281791,-7.286501 -0.400561,-1.999278 -1.237522,-3.281795 -2.632828,-4.034413 -0.889833,-0.479971 -1.7618,-0.682832 -3.122705,-0.726493 -1.071381,-0.03437 -1.676038,0.04027 -2.466752,0.304506 -1.174818,0.392595 -2.255774,1.20371 -2.817941,2.114494 -0.109686,0.177704 -0.219925,0.323098 -0.244978,0.323098 -0.02505,0 -0.04555,-0.513947 -0.04555,-1.142103 v -1.142103 l -2.561947,0.01378 -2.561947,0.01378 -0.01343,8.561947 -0.01344,8.561947 h 2.734675 2.734674 v -4.568464 c 0,-2.792302 0.02144,-4.768926 0.05514,-5.084071 0.152808,-1.428778 0.606672,-2.342139 1.401178,-2.819744 0.575175,-0.345758 1.434923,-0.4907 2.23609,-0.376974 1.317196,0.186976 2.004486,1.057868 2.199683,2.787306 0.0326,0.288813 0.05411,2.394773 0.05437,5.323009 l 4.35e-4,4.845133 h 2.684854 2.684853 z M 8.6630491,11.049604 C 9.5213194,10.86778 10.213019,10.383458 10.700757,9.622817 11.216423,8.8186232 11.248682,7.6274735 10.77997,6.697843 10.152199,5.4527368 8.7196982,4.7583277 7.3668134,5.0433051 5.9689398,5.3377593 4.9801688,6.4415358 4.8891211,7.8091827 4.7529497,9.8546442 6.6430419,11.477541 8.6630491,11.049604 Z"
     id="path4590"
     inkscape:connector-curvature="0" /></svg>